# xmcd
#
# Track frame offsets:
#	150
#	12595
#	26186
#	39984
#	53422
#	66317
#	81799
#	95565
#	109124
#	124549
#	138515
#	152467
#	166908
#	181352
#	196459
#	209648
#	225024
#	240495
#	254587
#	268928
#	283907
#	297624
#	310844
#	324507
#	337992
#
# Disc length: 4690 seconds
#
# Revision: 1
# Processed by: cddbd v1.5.2PL0 Copyright (c) Steve Scherf et al.
# Submitted via: audiograbber 1.83.01
#
DISCID=6c125019
DTITLE=Louis Amstrong - Hot Fives And Hot Sevens
DYEAR=2000
DGENRE=Jazz
TTITLE0=Sweet Little Papa
TTITLE1=Jazz Llips
TTITLE2=Skid Dat De Dat
TTITLE3=Big Butter And Egg Man From The West
TTITLE4=You Made Me Love You
TTITLE5=The Last Time
TTITLE6=Struttin´ With SOme Barbeque
TTITLE7=Hotter Than That
TTITLE8=Savoy Blues
TTITLE9=Fireworks
TTITLE10=Skip The Gutter
TTITLE11=Monday Date
TTITLE12=West End Blues
TTITLE13=Sugar Foot Strut
TTITLE14=Two Deuces
TTITLE15=Squeeze Me
TTITLE16=Knee Drops
TTITLE17=Willie The Weeper
TTITLE18=Wild Man Blues
TTITLE19=Chicago Breakdown
TTITLE20=Alligator Crawl
TTITLE21=Potato Head Blues
TTITLE22=Melancholy Blues
TTITLE23=Weary Blues
TTITLE24=Twelfth Street Blues
EXTD=
EXTT0=
EXTT1=
EXTT2=
EXTT3=
EXTT4=
EXTT5=
EXTT6=
EXTT7=
EXTT8=
EXTT9=
EXTT10=
EXTT11=
EXTT12=
EXTT13=
EXTT14=
EXTT15=
EXTT16=
EXTT17=
EXTT18=
EXTT19=
EXTT20=
EXTT21=
EXTT22=
EXTT23=
EXTT24=
PLAYORDER=
